<svg width="163" height="61" viewBox="0 0 163 61" fill="none" xmlns="http://www.w3.org/2000/svg">
<path d="M0 6C0 2.68629 2.68629 0 6 0H157C160.314 0 163 2.68629 163 6V55C163 58.3137 160.314 61 157 61H6C2.68629 61 0 58.3137 0 55V6Z" fill="#00B336"/>
<path d="M37.4675 18.503C36.3482 17.8893 34.9667 18.3622 34.3919 19.5392L26.1535 37.2555C25.962 37.6378 25.7905 37.8994 25.3569 37.8994C24.9233 37.8994 24.7519 37.6378 24.5603 37.2555L16.3118 19.5392C15.7371 18.3622 14.3556 17.8994 13.2363 18.503C12.117 19.1167 11.6733 20.5654 12.2582 21.7324L20.3151 38.1308L21.2327 39.9919C22.0293 41.6217 23.6125 42.6378 25.367 42.6378C27.1115 42.6378 28.6946 41.6217 29.5013 39.9919L30.419 38.1308L38.4758 21.7324C39.0204 20.5654 38.5868 19.1167 37.4675 18.503Z" fill="white"/>
<path d="M146.876 18.2414C145.323 18.2314 143.962 19.2072 143.316 20.5352C141.219 24.8008 135.058 37.4869 135.037 37.5272C134.987 37.6076 134.866 37.8994 134.594 37.8994C134.342 37.8994 134.201 37.6177 134.15 37.5171C132.103 33.3018 128.08 24.9919 125.962 20.6861C125.145 19.0262 123.784 18.2314 122.312 18.2314C120.043 18.2314 118.208 20.1429 118.208 22.7485V40.1831C118.208 41.2394 118.813 42.2253 119.751 42.5372C121.273 43.0302 122.574 41.7123 122.574 40.1428L122.251 23.1408C122.251 22.9698 122.463 22.8994 122.544 23.0503L130.954 40.0423C131.73 41.672 133.091 42.6378 134.594 42.6378C136.096 42.6378 137.447 41.662 138.234 40.0423L146.654 23.0604C146.735 22.8994 146.956 22.9598 146.956 23.1509L146.634 40.2435C146.634 41.5915 147.642 42.6881 148.882 42.6378C150.082 42.5976 151 41.4507 151 40.1328C151 40.1328 151 27.0946 151 22.7485C151 20.1227 149.155 18.2515 146.876 18.2414Z" fill="white"/>
<path d="M115.415 39.0966L106.148 20.8471C105.341 19.2274 103.768 18.2113 102.023 18.2113C100.934 18.2113 99.9058 18.6036 99.089 19.2978C98.605 19.7103 98.1916 20.2334 97.8891 20.837L88.6625 38.996C88.6524 39.0161 88.6423 39.0362 88.6322 39.0563L88.6221 39.0865C88.1986 39.9316 88.2995 40.9276 88.8037 41.6519C88.8137 41.672 88.8339 41.6922 88.844 41.7123C88.8541 41.7324 88.8742 41.7525 88.8944 41.7726C89.0557 41.9839 89.2574 42.175 89.4994 42.3159C90.2759 42.7887 91.2036 42.7183 91.8994 42.2354C91.9094 42.2253 91.9195 42.2254 91.9296 42.2153C91.98 42.1751 92.0304 42.1449 92.0708 42.1046C92.1111 42.0744 92.1514 42.0342 92.1817 41.994C92.2019 41.9738 92.2119 41.9638 92.2321 41.9437C92.3935 41.7726 92.5447 41.5815 92.6556 41.3501L92.9985 40.6258L94.9245 36.5915C94.9749 36.4909 95.0757 36.4205 95.1867 36.4205H103.707C104.847 36.4205 105.775 35.4447 105.775 34.2475C105.775 33.0503 104.847 32.0744 103.707 32.0744H97.3446C97.2034 32.0744 97.1227 31.9336 97.1731 31.8028L97.6471 30.7968L101.126 23.7948L101.136 23.7646C101.146 23.7545 101.146 23.7344 101.156 23.7243C101.217 23.6036 101.398 23.1107 101.741 23.0101C101.923 22.9497 102.124 22.9598 102.255 23C102.608 23.1107 102.77 23.5433 102.921 23.8551L111.371 41.3602C111.784 42.165 112.571 42.6278 113.388 42.6278C113.65 42.6278 113.912 42.5775 114.164 42.4869C114.184 42.4769 114.194 42.4769 114.215 42.4668C114.275 42.4366 114.336 42.4064 114.396 42.3762C114.416 42.3662 114.447 42.3561 114.467 42.3461C114.477 42.336 114.487 42.326 114.507 42.326C114.527 42.3159 114.547 42.3058 114.557 42.2958C114.588 42.2756 114.608 42.2555 114.638 42.2455C114.658 42.2254 114.678 42.2153 114.699 42.1952C114.729 42.165 114.769 42.1449 114.799 42.1147C114.84 42.0845 114.87 42.0543 114.91 42.0141C114.92 42.004 114.931 41.994 114.941 41.9839C115.687 41.2797 115.909 40.0926 115.415 39.0966Z" fill="white"/>
<path d="M43.6891 33.0805H59.2886C59.5811 33.0805 62.0012 32.8793 62.0012 30.163C62.0012 23.4527 56.808 18 50.425 18C44.042 18 38.8489 23.4527 38.8489 30.163C38.8489 30.3139 38.859 30.7364 38.859 30.8068C38.8489 38.4628 43.7799 42.5875 50.3141 42.9698C50.6267 42.9899 50.9292 43 51.2317 43C53.7426 43 55.8602 42.3461 58.1593 40.8974C58.3912 40.7565 59.3189 40.1429 60.2567 38.9256C61.0029 37.9598 61.0734 36.5211 60.2567 35.7767C59.0869 34.7002 57.8769 35.2837 56.798 36.1891C55.1039 37.6278 53.8031 38.7445 50.425 38.7445C47.2487 38.7445 44.2437 36.9336 43.5278 33.3219C43.4975 33.2012 43.5681 33.0805 43.6891 33.0805ZM43.5076 28.5936C43.9412 25.0825 46.3613 21.9638 50.4049 21.9638C54.4384 21.9638 56.9996 25.0121 57.403 28.5936C57.4131 28.7243 57.3324 28.8451 57.2114 28.8451H43.7093C43.5782 28.8451 43.4975 28.7243 43.5076 28.5936Z" fill="white"/>
<path d="M69.3522 33.0805H84.9517C85.2441 33.0805 87.6642 32.8793 87.6642 30.163C87.6642 23.4527 82.4711 18 76.0881 18C69.7051 18 64.512 23.4527 64.512 30.163C64.512 30.3139 64.5221 30.7364 64.5221 30.8068C64.512 38.4628 69.4429 42.5875 75.9772 42.9698C76.2898 42.9899 76.5923 43 76.8948 43C79.4056 43 81.5232 42.3461 83.8223 40.8974C84.0542 40.7565 84.9819 40.1429 85.9197 38.9256C86.6659 37.9598 86.7365 36.5211 85.9197 35.7767C84.75 34.7002 83.54 35.2837 82.461 36.1891C80.7669 37.6278 79.4661 38.7445 76.0881 38.7445C72.9117 38.7445 69.9068 36.9336 69.1908 33.3219C69.1505 33.2012 69.2312 33.0805 69.3522 33.0805ZM69.1707 28.5936C69.6043 25.0825 72.0244 21.9638 76.0679 21.9638C80.1014 21.9638 82.6627 25.0121 83.066 28.5936C83.0761 28.7243 82.9954 28.8451 82.8744 28.8451H69.3723C69.2413 28.8451 69.1505 28.7243 69.1707 28.5936Z" fill="white"/>
</svg>
