<svg xmlns="http://www.w3.org/2000/svg" xmlns:xlink="http://www.w3.org/1999/xlink" version="1.1" width="256" height="256" viewBox="0 0 256 256" xml:space="preserve">

<defs>
</defs>
<g style="stroke: none; stroke-width: 0; stroke-dasharray: none; stroke-linecap: butt; stroke-linejoin: miter; stroke-miterlimit: 10; fill: none; fill-rule: nonzero; opacity: 1;" transform="translate(1.4065934065934016 1.4065934065934016) scale(2.81 2.81)" >
	<path d="M 86.871 37.785 h -2.854 v -5.498 c 0 -1.838 -1.49 -3.328 -3.328 -3.328 H 4.328 C 2.49 28.959 1 30.449 1 32.287 v 25.426 c 0 1.838 1.49 3.328 3.328 3.328 H 80.69 c 1.838 0 3.328 -1.49 3.328 -3.328 v -5.498 h 2.854 c 1.176 0 2.129 -0.953 2.129 -2.129 V 39.914 C 89 38.738 88.047 37.785 86.871 37.785 z" style="stroke: none; stroke-width: 1; stroke-dasharray: none; stroke-linecap: butt; stroke-linejoin: miter; stroke-miterlimit: 10; fill: rgb(78,198,118); fill-rule: nonzero; opacity: 1;" transform=" matrix(1 0 0 1 0 0) " stroke-linecap="round" />
	<path d="M 80.689 62.041 H 4.328 C 1.941 62.041 0 60.1 0 57.713 V 32.287 c 0 -2.386 1.941 -4.328 4.328 -4.328 h 76.362 c 2.387 0 4.328 1.941 4.328 4.328 v 4.498 h 1.854 c 1.726 0 3.129 1.404 3.129 3.129 v 10.172 c 0 1.726 -1.403 3.129 -3.129 3.129 h -1.854 v 4.498 C 85.018 60.1 83.076 62.041 80.689 62.041 z M 4.328 29.959 C 3.044 29.959 2 31.003 2 32.287 v 25.426 c 0 1.284 1.044 2.328 2.328 2.328 h 76.362 c 1.284 0 2.328 -1.044 2.328 -2.328 v -5.498 c 0 -0.553 0.447 -1 1 -1 h 2.854 c 0.622 0 1.129 -0.507 1.129 -1.129 V 39.914 c 0 -0.623 -0.507 -1.129 -1.129 -1.129 h -2.854 c -0.553 0 -1 -0.448 -1 -1 v -5.498 c 0 -1.284 -1.044 -2.328 -2.328 -2.328 H 4.328 z" style="stroke: none; stroke-width: 1; stroke-dasharray: none; stroke-linecap: butt; stroke-linejoin: miter; stroke-miterlimit: 10; fill: rgb(0,0,0); fill-rule: nonzero; opacity: 1;" transform=" matrix(1 0 0 1 0 0) " stroke-linecap="round" />
</g>
</svg>